<svg width="213" height="35" viewBox="0 0 213 35" fill="none" xmlns="http://www.w3.org/2000/svg">
<path d="M25.968 1.36L15.984 20.896V34H10.224V20.992L0.144 1.36H6.288L13.344 15.28L20.016 1.36H25.968ZM52.0219 14.224V21.088C52.0219 25.248 50.9819 28.528 48.9019 30.928C46.8219 33.296 43.7819 34.48 39.7819 34.48C35.7499 34.48 32.6939 33.296 30.6139 30.928C28.5659 28.528 27.5419 25.248 27.5419 21.088V14.224C27.5419 10.064 28.5659 6.8 30.6139 4.432C32.6939 2.064 35.7499 0.879997 39.7819 0.879997C43.7819 0.879997 46.8219 2.064 48.9019 4.432C50.9819 6.8 52.0219 10.064 52.0219 14.224ZM46.1179 14.224C46.1179 11.6 45.6059 9.632 44.5819 8.32C43.5579 6.976 41.9579 6.304 39.7819 6.304C37.6059 6.304 36.0059 6.976 34.9819 8.32C33.9579 9.632 33.4459 11.6 33.4459 14.224V21.088C33.4459 23.712 33.9579 25.696 34.9819 27.04C36.0059 28.384 37.6059 29.056 39.7819 29.056C41.9579 29.056 43.5579 28.384 44.5819 27.04C45.6059 25.696 46.1179 23.712 46.1179 21.088V14.224ZM64.053 24.448H59.733L59.157 11.92V1.36H64.677V11.92L64.053 24.448ZM64.773 34H58.965V28.288H64.773V34Z" fill="#F12D39"/>
<path d="M89.0344 1.36L98.1544 23.68L107.226 1.36H113.514V34H107.994V21.52L108.714 10.096L100.602 30.16H95.4664L87.5464 10.048L88.2664 21.52V34H82.7464V1.36H89.0344ZM121.775 1.36H127.679V22.288C127.679 24.4 128.143 26.064 129.071 27.28C129.999 28.464 131.487 29.056 133.535 29.056C135.583 29.056 137.071 28.464 137.999 27.28C138.927 26.064 139.391 24.4 139.391 22.288V1.36H145.295V22.288C145.295 25.968 144.319 28.928 142.367 31.168C140.415 33.376 137.471 34.48 133.535 34.48C129.567 34.48 126.607 33.376 124.655 31.168C122.735 28.928 121.775 25.968 121.775 22.288V1.36ZM160.679 29.152C164.391 29.152 166.247 27.776 166.247 25.024C166.247 23.904 165.959 23.024 165.383 22.384C164.839 21.744 163.815 21.184 162.311 20.704L158.375 19.408C153.671 17.872 151.319 14.784 151.319 10.144C151.319 7.456 152.151 5.248 153.815 3.52C155.511 1.76 158.151 0.879997 161.734 0.879997C163.239 0.879997 164.727 1.056 166.199 1.408C167.671 1.728 169.239 2.256 170.903 2.992L169.127 7.936C167.591 7.328 166.279 6.896 165.191 6.64C164.135 6.352 163.047 6.208 161.927 6.208C160.455 6.208 159.287 6.48 158.423 7.024C157.591 7.536 157.175 8.48 157.175 9.856C157.175 10.88 157.463 11.728 158.039 12.4C158.647 13.04 159.639 13.584 161.015 14.032L164.951 15.328C167.319 16.128 169.095 17.296 170.279 18.832C171.495 20.336 172.103 22.336 172.103 24.832C172.103 27.712 171.191 30.048 169.367 31.84C167.543 33.6 164.679 34.48 160.775 34.48C159.239 34.48 157.639 34.304 155.975 33.952C154.343 33.568 152.551 32.928 150.599 32.032L152.375 27.088C154.167 27.856 155.687 28.4 156.935 28.72C158.215 29.008 159.463 29.152 160.679 29.152ZM184.178 34H178.418V1.36H184.178V34ZM197.6 21.088C197.6 23.424 198.112 25.344 199.136 26.848C200.16 28.32 201.84 29.056 204.176 29.056C205.136 29.056 206.128 28.928 207.152 28.672C208.208 28.416 209.504 27.984 211.04 27.376L212.816 32.368C211.088 33.136 209.488 33.68 208.016 34C206.576 34.32 205.184 34.48 203.84 34.48C201.152 34.48 198.896 33.904 197.072 32.752C195.28 31.6 193.936 30.016 193.04 28C192.144 25.984 191.696 23.68 191.696 21.088V14.224C191.696 11.632 192.144 9.328 193.04 7.312C193.936 5.296 195.28 3.728 197.072 2.608C198.896 1.456 201.152 0.879997 203.84 0.879997C205.152 0.879997 206.512 1.04 207.92 1.36C209.328 1.648 210.864 2.16 212.528 2.896L210.752 7.984C209.28 7.376 208.048 6.944 207.056 6.688C206.064 6.432 205.104 6.304 204.176 6.304C201.84 6.304 200.16 7.04 199.136 8.512C198.112 9.984 197.6 11.888 197.6 14.224V21.088Z" fill="#61C25F"/>
</svg>
